<?xml version="1.0" standalone="no"?><!DOCTYPE svg PUBLIC "-//W3C//DTD SVG 1.1//EN" "http://www.w3.org/Graphics/SVG/1.1/DTD/svg11.dtd"><svg class="icon" width="32px" height="32.00px" viewBox="0 0 1024 1024" version="1.1" xmlns="http://www.w3.org/2000/svg"><path fill="#39739d" d="M718.933333 786.773333a20.48 20.48 0 0 1 0 29.866667l-30.293333 30.293333a21.333333 21.333333 0 0 1-29.866667 0L512 699.733333l-146.773333 147.2a21.333333 21.333333 0 0 1-30.293334 0l-29.866666-30.293333a20.48 20.48 0 0 1 0-29.866667l176.213333-177.066666a32 32 0 0 1 22.613333-9.386667h16.213334a32.853333 32.853333 0 0 1 22.613333 9.386667z m-237.653333-369.493333a32.853333 32.853333 0 0 0 22.613333 9.386667h16.213334a32 32 0 0 0 22.613333-9.386667l176.213333-176.64a21.333333 21.333333 0 0 0 0-30.293333l-29.866666-30.293334a21.333333 21.333333 0 0 0-30.293334 0L512 327.253333 365.226667 180.48a20.906667 20.906667 0 0 0-29.866667 0l-30.293333 30.293333a21.333333 21.333333 0 0 0 0 30.293334z" /></svg>