<?xml version="1.0" standalone="no"?><!DOCTYPE svg PUBLIC "-//W3C//DTD SVG 1.1//EN" "http://www.w3.org/Graphics/SVG/1.1/DTD/svg11.dtd"><svg t="1659235899556" class="icon" viewBox="0 0 1024 1024" version="1.1" xmlns="http://www.w3.org/2000/svg" p-id="20650" xmlns:xlink="http://www.w3.org/1999/xlink" width="32" height="32"><defs><style type="text/css"></style></defs><path d="M848 960H176c-26.6 0-48-21.4-48-48v-48c0-26.6 21.4-48 48-48h672c26.6 0 48 21.4 48 48v48c0 26.6-21.4 48-48 48z m-132.8-561L584 530.2V112c0-26.6-21.4-48-48-48h-48c-26.6 0-48 21.4-48 48v418.2l-131.2-131.2c-18.8-18.8-49.2-18.8-67.8 0l-34 34c-18.8 18.8-18.8 49.2 0 67.8L478 771.8c18.8 18.8 49.2 18.8 67.8 0l271-271c18.8-18.8 18.8-49.2 0-67.8l-34-34c-18.6-18.8-49-18.8-67.6 0z" p-id="20651" fill="#39739d"></path></svg>