<?xml version="1.0" standalone="no"?><!DOCTYPE svg PUBLIC "-//W3C//DTD SVG 1.1//EN" "http://www.w3.org/Graphics/SVG/1.1/DTD/svg11.dtd"><svg t="1659235501581" class="icon" viewBox="0 0 1024 1024" version="1.1" xmlns="http://www.w3.org/2000/svg" p-id="12006" data-spm-anchor-id="a313x.7781069.0.i17" xmlns:xlink="http://www.w3.org/1999/xlink" width="32" height="32"><defs><style type="text/css"></style></defs><path d="M822.857143 510.285714q0-92-49.714286-168.571429l-430.857143 430.285714q78.285714 50.857143 169.714286 50.857143 63.428571 0 120.857143-24.857143t99.142857-66.571429 66.285714-99.714286 24.571429-121.428571zm-570.857143 170.857143l431.428571-430.857143q-77.142857-52-171.428571-52-84.571429 0-156 41.714286t-113.142857 113.714286-41.714286 156.571429q0 92.571429 50.857143 170.857143zm698.857143-170.857143q0 89.714286-34.857143 171.428571t-93.428571 140.571429-140 93.714286-170.571429 34.857143-170.571429-34.857143-140-93.714286-93.428571-140.571429-34.857143-171.428571 34.857143-171.142857 93.428571-140.285714 140-93.714286 170.571429-34.857143 170.571429 34.857143 140 93.714286 93.428571 140.285714 34.857143 171.142857z" p-id="12007" data-spm-anchor-id="a313x.7781069.0.i18" class="" fill="#39739d"></path></svg>