<?xml version="1.0" standalone="no"?><!DOCTYPE svg PUBLIC "-//W3C//DTD SVG 1.1//EN" "http://www.w3.org/Graphics/SVG/1.1/DTD/svg11.dtd"><svg t="1659603443004" class="icon" viewBox="0 0 1024 1024" version="1.1" xmlns="http://www.w3.org/2000/svg" p-id="2519" xmlns:xlink="http://www.w3.org/1999/xlink" width="32" height="32"><defs><style type="text/css"></style></defs><path d="M170.666667 768v-157.866667a64 64 0 0 0-64-64H85.333333v-68.266666h21.333334A64 64 0 0 0 170.666667 413.866667V256a128 128 0 0 1 128-128h42.666666v85.333333H298.666667a42.666667 42.666667 0 0 0-42.666667 42.666667v174.933333A85.333333 85.333333 0 0 1 197.376 512 85.333333 85.333333 0 0 1 256 593.066667V768a42.666667 42.666667 0 0 0 42.666667 42.666667h42.666666v85.333333H298.666667a128 128 0 0 1-128-128z m682.666666-157.866667V768a128 128 0 0 1-128 128h-42.666666v-85.333333h42.666666a42.666667 42.666667 0 0 0 42.666667-42.666667v-174.933333a85.333333 85.333333 0 0 1 58.624-81.066667A85.333333 85.333333 0 0 1 768 430.933333V256a42.666667 42.666667 0 0 0-42.666667-42.666667h-42.666666V128h42.666666a128 128 0 0 1 128 128v157.866667a64 64 0 0 0 64 64h21.333334v68.266666h-21.333334a64 64 0 0 0-64 64z" p-id="2520" fill="#39739d"></path></svg>